<?xml version="1.0" encoding="utf-8"?>
<!-- Generator: Adobe Illustrator 24.2.0, SVG Export Plug-In . SVG Version: 6.00 Build 0)  -->
<svg version="1.1" id="레이어_1" xmlns="http://www.w3.org/2000/svg" xmlns:xlink="http://www.w3.org/1999/xlink" x="0px"
	 y="0px" viewBox="0 0 1900 3768" style="enable-background:new 0 0 1900 3768;" xml:space="preserve">
<style type="text/css">
	.st0{fill:none;}
	.st1{fill:#FFFFFF;}
	.st2{font-family:'KoreanGD19-R';}
	.st3{font-size:50px;}
	.st4{letter-spacing:2;}
	.st5{fill:url(#history_img3_1_);}
	.st6{font-family:'KoreanGD15-R';}
	.st7{font-size:15px;}
	.st8{font-size:20px;}
	.st9{fill:#6B6B6B;}
	.st10{font-family:'KoreanGD17-R';}
	.st11{font-size:70px;}
	.st12{letter-spacing:-3;}
	.st13{fill:#D66190;}
	.st14{font-family:'KoreanGD18-R';}
	.st15{fill:#707070;}
	.st16{fill:#CD6791;}
	.st17{fill:#F5F5F5;}
	.st18{font-size:200px;}
	.st19{font-size:19px;}
	.st20{font-size:45px;}
	.st21{fill:#040083;}
	.st22{font-size:25px;}
	.st23{opacity:0.81;fill:#CD6791;enable-background:new    ;}
	.st24{opacity:0.81;fill:#F5F5F5;enable-background:new    ;}
	.st25{fill:#003D7C;}
	.st26{font-size:60px;}
	.st27{fill:url(#vision_1_);}
	.st28{opacity:0.52;enable-background:new    ;}
	.st29{fill:#0054D1;}
	.st30{fill:none;stroke:#707070;}
	.st31{fill:#30AAFF;}
	.st32{fill:#FED452;}
	.st33{fill:#0073DE;}
	.st34{fill:#E4E4E4;}
	.st35{fill:#F7F7F7;}
	.st36{letter-spacing:1;}
	.st37{fill:none;stroke:#000000;stroke-width:3;stroke-linecap:round;stroke-linejoin:round;}
	.st38{fill:#D67B91;}
	.st39{fill:#D67B8F;}
</style>
<pattern  y="3768" width="520" height="200" patternUnits="userSpaceOnUse" id="pattern-11" viewBox="0 -200 520 200" style="overflow:visible;">
	<g>
		<rect y="-200" class="st0" width="520" height="200"/>
		
			<image style="overflow:visible;enable-background:new    ;" width="520" height="200" xlink:href="F2488676.jpg"  transform="matrix(1 0 0 -1 0 0)">
		</image>
	</g>
</pattern>
<pattern  y="3768" width="1900" height="1900" patternUnits="userSpaceOnUse" id="pattern-2" viewBox="0 -1900 1900 1900" style="overflow:visible;">
	<g>
		<rect x="0" y="-1900" class="st0" width="1900" height="1900"/>
		
			<image style="overflow:visible;enable-background:new    ;" width="530" height="245" xlink:href="F2488677.jpg"  transform="matrix(3.5849 0 0 -3.5849 0 -382.226)">
		</image>
	</g>
</pattern>
<image style="overflow:visible;opacity:0.58;" width="304" height="187" xlink:href="F2488672.jpg"  transform="matrix(1.2533 0 0 1.2032 764.1489 1508.5)">
</image>
<image style="overflow:visible;opacity:0.58;" width="500" height="333" xlink:href="image/갱년기.jpg"  transform="matrix(0.762 0 0 0.6757 345.8948 1509.9467)">
</image>
<image style="overflow:visible;opacity:0.58;" width="512" height="339" xlink:href="image/1.jpg"  transform="matrix(0.7441 0 0 0.6637 341.1808 1261.7446)">
</image>
<image style="overflow:visible;opacity:0.58;" width="367" height="137" xlink:href="image/무훙터.jpg"  transform="matrix(1.0381 0 0 1.6423 764.1489 1254.2021)">
</image>
<image style="overflow:visible;opacity:0.58;" width="485" height="280" xlink:href="image/unnamed.png"  transform="matrix(0.7856 0 0 0.8036 1183.4468 1491)">
</image>
<image style="overflow:visible;opacity:0.58;" width="523" height="321" xlink:href="F2488675.jpg"  transform="matrix(0.7285 0 0 0.7009 1183.4468 1255.3271)">
</image>
<image style="overflow:visible;opacity:0.51;" width="1388" height="547" xlink:href="F2488674.jpg"  transform="matrix(-1.3689 0 0 1.3437 1904.5851 133.883)">
</image>
<text transform="matrix(1 0 0 1 350 651)" class="st1 st2 st3 st4">SINSEGAE HOSPITAL</text>
<pattern  id="history_img3_1_" xlink:href="#pattern-2" patternTransform="matrix(-1 0 0 -1 -10673 -25581.7266)">
</pattern>
<rect id="history_img3" y="1763" class="st5" width="1900" height="341"/>
<rect id="header_-_면1" class="st1" width="1900" height="36"/>
<rect id="header_-_면2_" y="36" class="st1" width="1900" height="96"/>
<rect id="로고" x="350" y="36" class="st1" width="280" height="98"/>
<text transform="matrix(1 0 0 1 1213 23)" class="st6 st7">로그인</text>
<text transform="matrix(1 0 0 1 1294 23)" class="st6 st7">회원가입</text>
<text transform="matrix(1 0 0 1 1388 23)" class="st6 st7">의료상담</text>
<text transform="matrix(1 0 0 1 1476 23)" class="st6 st7">고객의소리</text>
<text transform="matrix(1 0 0 1 722 99)" class="st6 st8">병원소개</text>
<text transform="matrix(1 0 0 1 854 99)" class="st6 st8">진료내용</text>
<text transform="matrix(1 0 0 1 959 99)" class="st6 st8">소아청소년과</text>
<text transform="matrix(1 0 0 1 1082 99)" class="st6 st8">종합건강검진센터</text>
<text transform="matrix(1 0 0 1 1240 99)" class="st6 st8">산후조리원</text>
<text transform="matrix(1 0 0 1 1363 99)" class="st6 st8">산모교실</text>
<text transform="matrix(1 0 0 1 1480 99)" class="st6 st8">켜뮤니티</text>
<text transform="matrix(1 0 0 1 350 382)" class="st9 st10 st11 st12">고객을 넘어 가족의 마음으로 </text>
<text transform="matrix(1 0 0 1 350 477)" class="st9 st10 st11 st12">대구 최초의 </text>
<text transform="matrix(1 0 0 1 674.5162 477)" class="st13 st14 st11 st12">여성병원</text>
<rect id="사각형_6" y="3612" class="st1" width="1900" height="156"/>
<g id="그룹_2" transform="translate(13 5)">
	<text transform="matrix(1 0 0 1 337 3644)" class="st6 st7">개인정보취급방침</text>
	<text transform="matrix(1 0 0 1 462 3644)" class="st6 st7">이용약관</text>
	<text transform="matrix(1 0 0 1 534 3644)" class="st6 st7">진료시간</text>
	<text transform="matrix(1 0 0 1 606 3644)" class="st6 st7">찾아오시는 길</text>
</g>
<text transform="matrix(1 0 0 1 350 3686)" class="st15 st6 st7">상호명 : 신세계여성병원 주소 : 대구광역시 북구 동북로 196 사업자등록번호 : 504-16-23603</text>
<text transform="matrix(1 0 0 1 350 3706)" class="st15 st6 st7">Tel : 053.954.7771 Fax : 053.954.5932 E-mail : ssghos@naver.com</text>
<text transform="matrix(1 0 0 1 350 3743)" class="st15 st6 st7">COPYRIGHT© 신세계여성병원. ALL RIGHTS RESERVED.</text>
<text transform="matrix(1 0 0 1 937.133 3686)" class="st15 st6 st7"> 산부인과 응급환자는 </text>
<text transform="matrix(1 0 0 1 944.078 3706)" class="st15 st6 st7">24시간 진료합니다.</text>
<text transform="matrix(1 0 0 1 1135 3686)" class="st15 st6 st7">평일09 : 00 ~ 18 : 00</text>
<text transform="matrix(1 0 0 1 1135 3706)" class="st15 st6 st7">토요일09 : 00 ~ 16 : 00 점심시간13 : 00 ~ 14 : 00</text>
<text transform="matrix(1 0 0 1 1135 3726)" class="st15 st6 st7">일요일/공휴일09 : 00 ~ 12 : 30 평일 야간진료18 : 00 ~ 20 : 00</text>
<text transform="matrix(1 0 0 1 999 3649)" class="st6 st7">진료시간 및 상담</text>
<text transform="matrix(1 0 0 1 1100.1888 3649)" class="st16 st6 st7">       053.954.7771</text>
<rect id="사각형_7" x="350" y="2099" class="st1" width="1200" height="588"/>
<text transform="matrix(1 0 0 1 162 2531)" class="st17 st2 st18">SHINCEGA</text>
<text transform="matrix(1 0 0 1 1049 2323)" class="st15 st6 st19">- 학력/경력경북대학교 의과대학 졸업</text>
<text transform="matrix(1 0 0 1 1049 2349)" class="st15 st6 st19">- 산부인과 전문의김천제일병원 산부인과 과장대한 </text>
<text transform="matrix(1 0 0 1 1049 2375)" class="st15 st6 st19">- 부인과내시경학회 정회원</text>
<text transform="matrix(1 0 0 1 1049 2401)" class="st15 st6 st19">- 대한 산부인과 초음파학회 정회원</text>
<text transform="matrix(1 0 0 1 1049 2427)" class="st15 st6 st19">- 전문분야산과학(태아정밀 초음파,고위험임신,습관성유산), </text>
<text transform="matrix(1 0 0 1 1049 2453)" class="st15 st6 st19">   부인과학(종양학,복강경 수술)</text>
<text transform="matrix(1 0 0 1 412 2384)" class="st10 st20">이태엽 원장</text>
<text transform="matrix(1 0 0 1 412 2327)" class="st21 st10 st8">산부인과전문의</text>
<image style="overflow:visible;enable-background:new    ;" width="386" height="470" id="의사_3_" xlink:href="47B6EA4.png"  transform="matrix(1.0415 0 0 1.0415 647 2201.259)">
</image>
<image style="overflow:visible;enable-background:new    ;" width="386" height="470" id="의사_5_" xlink:href="47B6EBB.png"  transform="matrix(0.24 0 0 0.24 611.036 2546.1565)">
</image>
<image style="overflow:visible;enable-background:new    ;" width="386" height="470" id="의사_6_" xlink:href="47B6EBC.png"  transform="matrix(0.24 0 0 0.24 708.178 2546.1565)">
</image>
<image style="overflow:visible;enable-background:new    ;" width="386" height="470" id="의사_7_" xlink:href="47B6EBD.png"  transform="matrix(0.24 0 0 0.24 805.32 2546.1565)">
</image>
<image style="overflow:visible;enable-background:new    ;" width="386" height="470" id="의사_8_" xlink:href="47B6EBE.png"  transform="matrix(0.24 0 0 0.24 903.214 2546.1565)">
</image>
<image style="overflow:visible;enable-background:new    ;" width="386" height="470" id="의사_9_" xlink:href="47B6EBA.png"  transform="matrix(0.24 0 0 0.24 1000.356 2546.1565)">
</image>
<image style="overflow:visible;enable-background:new    ;" width="386" height="470" id="의사_10_" xlink:href="47B6EA8.png"  transform="matrix(0.24 0 0 0.24 1097.4969 2546.1565)">
</image>
<image style="overflow:visible;enable-background:new    ;" width="386" height="470" id="의사_11_" xlink:href="47B6EA9.png"  transform="matrix(0.24 0 0 0.24 1195.392 2546.1565)">
</image>
<image style="overflow:visible;enable-background:new    ;" width="386" height="470" id="의사_1_" xlink:href="47B6EAA.png"  transform="matrix(0.24 0 0 0.24 1292.5341 2546.1565)">
</image>
<image style="overflow:visible;enable-background:new    ;" width="386" height="470" id="의사_2_" xlink:href="47B6EAB.png"  transform="matrix(0.2399 4.078409e-03 -4.078409e-03 0.2399 1391.0151 2545.3809)">
</image>
<text transform="matrix(1 0 0 1 623 2162)" class="st16 st6 st22">신세계 병원</text>
<text transform="matrix(1 0 0 1 740.3237 2162)" class="st6 st22"> 은</text>
<text transform="matrix(1 0 0 1 623 2196)" class="st6 st22">12인의 원장단과 100명의 STAFF가 합께 합니다.</text>
<rect id="history_img3-2" y="1763" class="st23" width="1900" height="341"/>
<rect id="history_img3-3" y="867" class="st24" width="1900" height="184"/>
<rect id="사각형_14" y="2725" class="st25" width="1900" height="341"/>
<text transform="matrix(1 0 0 1 360 2846)" class="st17 st2 st26">NEWS</text>
<text transform="matrix(1 0 0 1 350 1887)" class="st1 st2 st26">EVENT</text>
<text transform="matrix(1 0 0 1 825 1145)" class="st6 st20">진료 </text>
<text transform="matrix(1 0 0 1 917.384 1145)" class="st13 st6 st20">프로그램</text>
<text transform="matrix(1 0 0 1 768 1182)" class="st15 st6 st8">경험이  풍부한 의료진 / 안전한 분만 노하우</text>
<text transform="matrix(1 0 0 1 768 1209)" class="st15 st6 st8">고객을 가족으로 대하는 대구 최초의 여성병원</text>
<pattern  id="vision_1_" xlink:href="#pattern-11" patternTransform="matrix(3.6538 0 0 -2.745 19225.5 -40715.6172)">
</pattern>
<rect id="vision" y="3066" class="st27" width="1900" height="549"/>
<rect id="vision-2" y="3066" class="st28" width="1900" height="549"/>
<g id="사각형_12" transform="translate(350 3159)">
	<path class="st29" d="M104.5,0L104.5,0C162.2,0,209,46.8,209,104.5v155c0,57.7-46.8,104.5-104.5,104.5l0,0
		C46.8,364,0,317.2,0,259.5v-155C0,46.8,46.8,0,104.5,0z"/>
	<path class="st30" d="M104.5,0.5L104.5,0.5c57.4,0,104,46.6,104,104v155c0,57.4-46.6,104-104,104l0,0c-57.4,0-104-46.6-104-104
		v-155C0.5,47.1,47.1,0.5,104.5,0.5z"/>
</g>
<g id="사각형_12-2" transform="translate(598 3159)">
	<path class="st1" d="M104.5,0L104.5,0C162.2,0,209,46.8,209,104.5v155c0,57.7-46.8,104.5-104.5,104.5l0,0C46.8,364,0,317.2,0,259.5
		v-155C0,46.8,46.8,0,104.5,0z"/>
	<path class="st30" d="M104.5,0.5L104.5,0.5c57.4,0,104,46.6,104,104v155c0,57.4-46.6,104-104,104l0,0c-57.4,0-104-46.6-104-104
		v-155C0.5,47.1,47.1,0.5,104.5,0.5z"/>
</g>
<path id="사각형_12-3" class="st31" d="M950.5,3159L950.5,3159c57.7,0,104.5,46.8,104.5,104.5v155c0,57.7-46.8,104.5-104.5,104.5
	l0,0c-57.7,0-104.5-46.8-104.5-104.5v-155C846,3205.8,892.8,3159,950.5,3159z"/>
<g id="사각형_12-4" transform="translate(1094 3159)">
	<path class="st1" d="M107.6,0L107.6,0c57.7,0,104.5,46.8,104.5,104.5v155c0,57.7-46.8,104.5-104.5,104.5l0,0
		C49.9,364,3.1,317.2,3.1,259.5v-155C3.1,46.8,49.9,0,107.6,0z"/>
	<path class="st30" d="M107.6,0.5L107.6,0.5c57.4,0,104,46.6,104,104v155c0,57.4-46.6,104-104,104l0,0c-57.4,0-104-46.6-104-104
		v-155C3.6,47.1,50.2,0.5,107.6,0.5z"/>
</g>
<g id="사각형_12-5" transform="translate(1342 3159)">
	<path class="st25" d="M104.5,0L104.5,0C162.2,0,209,46.8,209,104.5v155c0,57.7-46.8,104.5-104.5,104.5l0,0
		C46.8,364,0,317.2,0,259.5v-155C0,46.8,46.8,0,104.5,0z"/>
	<path class="st30" d="M104.5,0.5L104.5,0.5c57.4,0,104,46.6,104,104v155c0,57.4-46.6,104-104,104l0,0c-57.4,0-104-46.6-104-104
		v-155C0.5,47.1,47.1,0.5,104.5,0.5z"/>
</g>
<g id="타원_2" transform="translate(360 2943)">
	<circle class="st1" cx="36.5" cy="36.5" r="36.5"/>
	<circle class="st30" cx="36.5" cy="36.5" r="36"/>
</g>
<circle id="타원_4" class="st1" cx="394.5" cy="2024.5" r="36.5"/>
<g id="타원_3" transform="translate(449 2943)">
	<circle class="st1" cx="36.5" cy="36.5" r="36.5"/>
	<circle class="st30" cx="36.5" cy="36.5" r="36"/>
</g>
<circle id="타원_5" class="st1" cx="483.5" cy="2024.5" r="36.5"/>
<text transform="matrix(1 0 0 1 360 2892)" class="st1 st6 st8">고객에게 제일빠르고 </text>
<text transform="matrix(1 0 0 1 360 2919)" class="st1 st6 st8">유익하게 전달하겠습니다.</text>
<text transform="matrix(1 0 0 1 350 1937)" class="st1 st6 st8">고객에게 제일빠르고 </text>
<text transform="matrix(1 0 0 1 350 1964)" class="st1 st6 st8">유익하게 전달하겠습니다.</text>
<image style="overflow:visible;enable-background:new    ;" width="260" height="70" id="logo" xlink:href="47B6EDA.png"  transform="matrix(1 0 0 1 367 52)">
</image>
<rect id="사각형_15" x="534" y="2798" class="st32" width="30" height="30"/>
<rect id="사각형_19" x="532" y="1843" class="st32" width="30" height="30"/>
<g id="그룹_7">
	<rect id="사각형_16" x="635" y="2789" class="st1" width="284" height="213"/>
	<rect id="사각형_17" x="673" y="2771" class="st33" width="83" height="36"/>
</g>
<g id="그룹_7-2" transform="translate(315)">
	<rect id="사각형_16-2" x="631" y="2789" class="st1" width="284" height="213"/>
	<rect id="사각형_17-2" x="669" y="2771" class="st33" width="83" height="36"/>
</g>
<g id="그룹_7-3" transform="translate(630)">
	<rect id="사각형_16-3" x="635" y="2789" class="st1" width="284" height="213"/>
	<rect id="사각형_17-3" x="673" y="2771" class="st33" width="83" height="36"/>
</g>
<rect id="사각형_18" x="635" y="1801" class="st1" width="279" height="265"/>
<rect id="사각형_18-2" x="951" y="1801" class="st1" width="279" height="265"/>
<rect id="사각형_18-3" x="1267" y="1801" class="st1" width="279" height="265"/>
<text transform="matrix(1 0 0 1 668 1895)" class="st6 st22">가족분만실</text>
<text transform="matrix(1 0 0 1 668 1929)" class="st6 st22">르봐이예분만</text>
<text transform="matrix(1 0 0 1 668 1963)" class="st6 st22">(잰틀버스, 진환경분만)</text>
<text transform="matrix(1 0 0 1 668 1997)" class="st6 st22">무통분만</text>
<text transform="matrix(1 0 0 1 1015 1904)" class="st6 st22">모유영양성분 </text>
<text transform="matrix(1 0 0 1 1015 1938)" class="st6 st22">간단분석</text>
<text transform="matrix(1 0 0 1 1015 1972)" class="st6 st22">무료서비스</text>
<text transform="matrix(1 0 0 1 1351 1892)" class="st6 st22">출산&amp;조리원</text>
<text transform="matrix(1 0 0 1 1351 1926)" class="st6 st22">후기 이벤트</text>
<text transform="matrix(1 0 0 1 668 1847)" class="st6 st22">모든산모</text>
<circle id="타원_6" class="st1" cx="455" cy="3414" r="88"/>
<circle id="타원_7" class="st34" cx="703" cy="3414" r="88"/>
<circle id="타원_8" class="st1" cx="951" cy="3414" r="88"/>
<circle id="타원_9" class="st34" cx="1201.6" cy="3414" r="88"/>
<circle id="타원_10" class="st1" cx="1447" cy="3414" r="88"/>
<text transform="matrix(1 0 0 1 404.2 3461)" class="st6 st8">대한청소년과</text>
<text transform="matrix(1 0 0 1 430.6 3488)" class="st6 st8">위원회</text>
<text transform="matrix(1 0 0 1 387.54 3242)" class="st1 st6 st8">영유아 건강검진 </text>
<text transform="matrix(1 0 0 1 419.8 3269)" class="st1 st6 st8">전문병원</text>
<text transform="matrix(1 0 0 1 615 3242)" class="st6 st8">국민건강보험공단지정</text>
<text transform="matrix(1 0 0 1 667.8 3269)" class="st6 st8">검진병원</text>
<text transform="matrix(1 0 0 1 886.47 3242)" class="st1 st6 st8">온라인 출생신고</text>
<text transform="matrix(1 0 0 1 915.8 3269)" class="st1 st6 st8">지정병원</text>
<text transform="matrix(1 0 0 1 1128.311 3242)" class="st6 st8">예방접종 전문병원</text>
<text transform="matrix(1 0 0 1 1382.47 3242)" class="st1 st6 st8">태아 기형아검사</text>
<text transform="matrix(1 0 0 1 1382.47 3269)" class="st1 st6 st8">무료지원 지정병</text>
<text transform="matrix(1 0 0 1 1148.8405 3454)" class="st6 st8">대한청소년과</text>
<text transform="matrix(1 0 0 1 1175.2405 3481)" class="st6 st8">위원회</text>
<rect id="사각형_20" x="350" y="867" class="st35" width="400" height="184"/>
<rect id="사각형_21" x="750" y="867" class="st35" width="400" height="184"/>
<rect id="사각형_22" x="1150" y="867" class="st35" width="400" height="184"/>
<path id="Icon_ionic-ios-phone-portrait" class="st25" d="M440.1,888.8H394c-5.3,0-9.6,4.2-9.6,9.5c0,0,0,0,0,0.1v110.8
	c0,5.4,4.2,9.8,9.6,9.9h46.1c5.3,0,9.4-4.6,9.4-9.9V898.4c0.1-5.2-3.9-9.4-9.1-9.6C440.3,888.8,440.2,888.8,440.1,888.8z
	 M412.5,895.5h8.7c0.6,0,1.2,0.5,1.2,1.1c0,0.6-0.5,1.2-1.1,1.2c0,0,0,0-0.1,0h-8.7c-0.6,0-1.2-0.5-1.2-1.1
	C411.3,896.1,411.8,895.5,412.5,895.5C412.5,895.5,412.5,895.5,412.5,895.5z M417,1014.8c-2.8,0-5.1-2.3-5.1-5.1
	c0-2.8,2.3-5.1,5.1-5.1s5.1,2.3,5.1,5.1l0,0C422.1,1012.5,419.8,1014.8,417,1014.8z M444.2,1000.5h-54.7c-0.3,0-0.6-0.3-0.6-0.6
	v-95.7c0-0.3,0.3-0.6,0.6-0.6h54.7c0.3,0,0.6,0.3,0.6,0.6v95.7C444.8,1000.3,444.6,1000.5,444.2,1000.5
	C444.2,1000.5,444.2,1000.5,444.2,1000.5L444.2,1000.5z"/>
<text transform="matrix(1 0 0 1 502 928)" class="st6 st22">예약어플안내</text>
<text transform="matrix(1 0 0 1 502 966)" class="st6 st7">신세계병원 만의 어플리케이션 예약</text>
<text transform="matrix(1 0 0 1 502 986)" class="st6 st7">고객에게 조금더 편리함을</text>
<text transform="matrix(1 0 0 1 902 962)" class="st6 st7">병원과 연계되어 있는 스튜디오로 </text>
<text transform="matrix(1 0 0 1 902 982)" class="st6 st7">나의 아이 첫사진을</text>
<text transform="matrix(1 0 0 1 1334 966)" class="st6 st7">건강검진을 위한 주의사항을 </text>
<text transform="matrix(1 0 0 1 1334 986)" class="st6 st7">합번에</text>
<text transform="matrix(1 0 0 1 902 926)" class="st6 st22">베이비스튜디오</text>
<text transform="matrix(1 0 0 1 1334 928)" class="st6 st22">건강검진안내</text>
<path id="Icon_awesome-photo-video" class="st25" d="M878,926h-63.7c-2.4-0.1-4.4,1.7-4.5,4.1v12.3h22.7v-8.2h27.3v41.1H878
	c2.4,0.1,4.4-1.7,4.5-4.1v-41.1C882.4,927.7,880.4,925.9,878,926z M824.5,939.2c0,0.7-0.6,1.2-1.3,1.2H819c-0.7,0-1.2-0.5-1.3-1.2
	v-3.8c0-0.7,0.6-1.2,1.3-1.2h4.3c0.7,0,1.2,0.5,1.3,1.2L824.5,939.2z M874.6,965.9c0,0.7-0.6,1.2-1.3,1.2H869
	c-0.7,0-1.2-0.5-1.3-1.2v-3.8c0-0.7,0.6-1.2,1.3-1.2h4.3c0.7,0,1.2,0.5,1.3,1.2L874.6,965.9z M874.6,952.6c0,0.7-0.6,1.2-1.3,1.2
	H869c-0.7,0-1.2-0.5-1.3-1.2v-3.8c0-0.7,0.6-1.2,1.3-1.2h4.3c0.7,0,1.2,0.5,1.3,1.2L874.6,952.6z M874.6,939.2
	c0,0.7-0.6,1.2-1.3,1.2H869c-0.7,0-1.2-0.5-1.3-1.2v-3.8c0-0.7,0.6-1.2,1.3-1.2h4.3c0.7,0,1.2,0.5,1.3,1.2L874.6,939.2z
	 M850.7,946.5h-54.6c-2.4-0.1-4.4,1.7-4.5,4.1v37c0.1,2.4,2.2,4.2,4.5,4.1h54.6c2.4,0.1,4.4-1.7,4.5-4.1v-37
	C855.1,948.2,853.1,946.4,850.7,946.5z M805.2,954.7c2.4-0.1,4.4,1.7,4.5,4.1c-0.1,2.4-2.2,4.2-4.5,4.1c-2.4,0.1-4.4-1.7-4.5-4.1
	C800.8,956.5,802.8,954.6,805.2,954.7z M846.1,983.5h-45.5v-4.1l9.1-8.2l4.5,4.1l18.2-16.4l13.6,12.3V983.5z"/>
<path id="Icon_awesome-laptop-medical" class="st25" d="M1210.6,954.1h8.1v9c0,0.7,0.5,1.3,1.2,1.3h6.9c0.7,0,1.2-0.6,1.2-1.3v-9
	h8.1c0.7,0,1.2-0.6,1.2-1.3v-7.7c0-0.7-0.5-1.3-1.2-1.3h-8.1v-9c0-0.7-0.5-1.3-1.2-1.3h-6.9c-0.7,0-1.2,0.6-1.2,1.3v9h-8.1
	c-0.7,0-1.2,0.6-1.2,1.3v7.7C1209.4,953.5,1209.9,954.1,1210.6,954.1z M1260.3,925.7c0-4.3-3.1-7.7-6.9-7.7h-60.1
	c-3.8,0-6.9,3.5-6.9,7.7v54.1h74L1260.3,925.7z M1251.1,969.6h-55.5v-41.3h55.5V969.6z M1267.3,985h-35c-0.1,3.2-2.1,5.2-4.7,5.2
	h-8.8c-2.7,0-4.8-2.8-4.7-5.2h-34.6c-1.3,0.1-2.4,1.2-2.3,2.6v2.6c0,5.7,4.1,10.3,9.3,10.3h74c5.1,0,9.2-4.6,9.3-10.3v-2.6
	C1269.7,986.3,1268.6,985.1,1267.3,985z"/>
<path id="Icon_zocial-cal" class="st25" d="M399.6,968.7v-32.4h4.1c0-0.8,0-1.4,0-1.6c0-0.4,0.1-0.9,0.2-1.3c0-0.5,0.2-0.9,0.5-1.3
	c0.3-0.3,0.7-0.5,1.1-0.7c0.6-0.2,1.2-0.4,1.8-0.3c0.6,0,1.2,0.1,1.8,0.3c0.4,0.2,0.8,0.4,1.1,0.7c0.3,0.4,0.5,0.8,0.5,1.3
	c0.1,0.4,0.2,0.9,0.2,1.3v1.6h2.5v-1.6c0,0,0.1-0.4,0.2-1.3c0.1-0.9,0.3-1.3,0.5-1.3s0.6-0.2,1.1-0.7c0.5-0.5,1.2-0.6,1.8-0.3
	c0.5,0,0.9,0,1.4,0.2c0.3,0.1,0.6,0.2,1,0.4c0.3,0.2,0.5,0.4,0.6,0.7c0.2,0.3,0.3,0.6,0.4,0.8c0.1,0.3,0.2,0.7,0.2,1
	c0,0.5,0.1,0.9,0.1,1v1.2h2.4v-1.2l0.1-1c0-0.7,0.1-1,0.2-1c0.1,0,0.2-0.3,0.4-0.8s0.4-0.8,0.6-0.7c0.4,0,0.7-0.1,1-0.4
	c0.4-0.3,0.9-0.3,1.4-0.2c0.6,0,1.2,0.1,1.8,0.3c0.4,0.2,0.8,0.4,1.1,0.7c0.3,0.4,0.5,0.8,0.5,1.3c0.1,0.4,0.2,0.9,0.2,1.3v1.6h4.1
	v32.4H399.6z M402.5,961.3v4.7h6.2v-4.7H402.5z M402.5,960.4h6.2v-5h-6.2V960.4z M402.5,954.5h6.2v-5.4h-6.2V954.5z M402.5,948.2
	h6.2v-4.7h-6.2V948.2z M405.7,939.7c0,0.9,0.5,1.4,1.6,1.4s1.6-0.5,1.6-1.4v-5.4c0-0.9-0.5-1.4-1.6-1.4s-1.7,0.5-1.7,1.4
	L405.7,939.7z M409.6,961.3v4.7h6.8v-4.7L409.6,961.3z M409.6,960.4h6.8v-5h-6.8L409.6,960.4z M409.6,954.5h6.8v-5.4h-6.8
	L409.6,954.5z M409.6,948.2h6.8v-4.7h-6.8L409.6,948.2z M415.2,939.7c0,0.9,0.5,1.4,1.6,1.4c1.1,0,1.7-0.5,1.7-1.4v-5.4
	c0-0.9-0.6-1.4-1.7-1.4c-1.1,0-1.6,0.5-1.6,1.4V939.7z M417.3,961.3v4.7h6.8v-4.7L417.3,961.3z M417.3,960.4h6.8v-5h-6.8
	L417.3,960.4z M417.3,954.5h6.8v-5.4h-6.8L417.3,954.5z M417.3,948.2h6.8v-4.7h-6.8L417.3,948.2z M424.8,939.7
	c0,0.9,0.6,1.4,1.7,1.4c1.1,0,1.6-0.5,1.6-1.4v-5.4c0-0.9-0.5-1.4-1.6-1.4c-1.1,0-1.7,0.5-1.7,1.4V939.7z M425.1,961.3v4.7h6.2v-4.7
	L425.1,961.3z M425.1,960.4h6.2v-5H425L425.1,960.4z M425.1,954.5h6.2v-5.4H425L425.1,954.5z M425.1,948.2h6.2v-4.7H425L425.1,948.2
	z"/>
<text transform="matrix(1 0 0 1 669 2846)" class="st6 st8">◆ 10월 한글날, 대체공휴일 </text>
<text transform="matrix(1 0 0 1 669 2873)" class="st6 st8">진료안내 ◆</text>
<text transform="matrix(1 0 0 1 972 2844)" class="st6 st8">코로나 상생 국민지원금 사용</text>
<text transform="matrix(1 0 0 1 972 2871)" class="st6 st8">안내</text>
<text transform="matrix(1 0 0 1 1291 2846)" class="st6 st8">[연합뉴스] 신세계병원 개원</text>
<text transform="matrix(1 0 0 1 1291 2873)" class="st6 st8">이래 첫 유방암수술도 로봇으</text>
<text transform="matrix(1 0 0 1 1291 2900)" class="st6 st8">로</text>
<text transform="matrix(1 0 0 1 669 2963)" class="st6 st7">2021-09-25</text>
<text transform="matrix(1 0 0 1 972 2961)" class="st6 st7">2021-09-25</text>
<text transform="matrix(1 0 0 1 1291 2963)" class="st6 st7">2021-09-25</text>
<text transform="matrix(1 0 0 1 1316 2794)" class="st1 st6 st7 st36">연론보도</text>
<text transform="matrix(1 0 0 1 999 2794)" class="st1 st6 st7 st36">병원소식</text>
<text transform="matrix(1 0 0 1 684 2794)" class="st1 st6 st7 st36">병원소식</text>
<text transform="matrix(1 0 0 1 396 1336)" class="st10 st22">산모</text>
<text transform="matrix(1 0 0 1 803 1336)" class="st10 st22">뮤흉터수술</text>
<text transform="matrix(1 0 0 1 1211 1336)" class="st10 st22">산모 및 육아정보</text>
<text transform="matrix(1 0 0 1 1211 1587)" class="st10 st22">유방클리닉</text>
<text transform="matrix(1 0 0 1 811 1583)" class="st10 st22">요실금</text>
<text transform="matrix(1 0 0 1 400 1587)" class="st10 st22">갱년기</text>
<text transform="matrix(1 0 0 1 396 1374)" class="st6 st7">임신 시기별 병원 진찰 간격 및</text>
<text transform="matrix(1 0 0 1 396 1394)" class="st6 st7">진찰 내용  </text>
<text transform="matrix(1 0 0 1 803 1374)" class="st6 st7">난소종양, 자궁근종</text>
<text transform="matrix(1 0 0 1 803 1394)" class="st6 st7">자궁내막증, 자궁선근증,</text>
<text transform="matrix(1 0 0 1 803 1414)" class="st6 st7">복강경 로봇수술</text>
<text transform="matrix(1 0 0 1 1211 1374)" class="st6 st7">신생아진료</text>
<text transform="matrix(1 0 0 1 1211 1394)" class="st6 st7">알레르기클리닉</text>
<text transform="matrix(1 0 0 1 1211 1414)" class="st6 st7">영유아 건강검진, 예방접종</text>
<text transform="matrix(1 0 0 1 1211 1625)" class="st6 st7">유방촬영술</text>
<text transform="matrix(1 0 0 1 1211 1645)" class="st6 st7">유방 감상선특수초음파</text>
<text transform="matrix(1 0 0 1 1211 1665)" class="st6 st7">세포검사, 조직검사</text>
<text transform="matrix(1 0 0 1 811 1621)" class="st6 st7">요실금 의심증상</text>
<text transform="matrix(1 0 0 1 811 1641)" class="st6 st7">여성요실금의 종류 </text>
<text transform="matrix(1 0 0 1 811 1661)" class="st6 st7">요실금의 치료</text>
<text transform="matrix(1 0 0 1 400 1625)" class="st6 st7">갱년기의 정의</text>
<text transform="matrix(1 0 0 1 400 1645)" class="st6 st7">골다곰증</text>
<text transform="matrix(1 0 0 1 400 1665)" class="st6 st7">골다곰증의 치료</text>
<path id="Icon_awesome-laptop-medical-2" class="st25" d="M1210.6,954.1h8.1v9c0,0.7,0.5,1.3,1.2,1.3h6.9c0.7,0,1.2-0.6,1.2-1.3v-9
	h8.1c0.7,0,1.2-0.6,1.2-1.3v-7.7c0-0.7-0.5-1.3-1.2-1.3h-8.1v-9c0-0.7-0.5-1.3-1.2-1.3h-6.9c-0.7,0-1.2,0.6-1.2,1.3v9h-8.1
	c-0.7,0-1.2,0.6-1.2,1.3v7.7C1209.4,953.5,1209.9,954.1,1210.6,954.1z M1260.3,925.7c0-4.3-3.1-7.7-6.9-7.7h-60.1
	c-3.8,0-6.9,3.5-6.9,7.7v54.1h74L1260.3,925.7z M1251.1,969.6h-55.5v-41.3h55.5V969.6z M1267.3,985h-35c-0.1,3.2-2.1,5.2-4.7,5.2
	h-8.8c-2.7,0-4.8-2.8-4.7-5.2h-34.6c-1.3,0.1-2.4,1.2-2.3,2.6v2.6c0,5.7,4.1,10.3,9.3,10.3h74c5.1,0,9.2-4.6,9.3-10.3v-2.6
	C1269.7,986.3,1268.6,985.1,1267.3,985z"/>
<g id="Icon_feather-plus" transform="translate(531.5 1842.5)">
	<path id="패스_1" class="st37" d="M15.1,7.5v15.2"/>
	<path id="패스_2" class="st37" d="M7.5,15.1h15.2"/>
</g>
<g id="Icon_feather-plus_1_" transform="translate(531.5 1842.5)">
	<path id="패스_1_1_" class="st37" d="M15.1,962.9v15.2"/>
	<path id="패스_2_1_" class="st37" d="M7.5,970.5h15.2"/>
</g>
<path id="Icon_awesome-long-arrow-alt-left" class="st38" d="M398.2,2027.6h31.5c0.7,0,1.3-0.4,1.3-0.8v-3.9c0-0.5-0.6-0.8-1.3-0.8
	h-31.5v-3.2c0-1.5-2.7-2.3-4.3-1.2l-9,6.1c-0.7,0.3-0.9,1.1-0.6,1.8c0.1,0.3,0.3,0.5,0.6,0.6l9,6.1c1.6,1.1,4.3,0.3,4.3-1.2V2027.6z
	"/>
<path id="Icon_awesome-long-arrow-alt-left-2" class="st25" d="M400.2,2982.3h31.5c0.7,0,1.3-0.4,1.3-0.8v-3.9
	c0-0.5-0.6-0.8-1.3-0.8h-31.5v-3.2c0-1.5-2.7-2.3-4.3-1.2l-9,6.1c-0.7,0.3-0.9,1.1-0.6,1.8c0.1,0.3,0.3,0.5,0.6,0.6l9,6.1
	c1.6,1.1,4.3,0.3,4.3-1.2V2982.3z"/>
<path id="Icon_awesome-long-arrow-alt-left-3" class="st39" d="M479.8,2027.6h-31.5c-0.7,0-1.3-0.4-1.3-0.8v-3.9
	c0-0.5,0.6-0.8,1.3-0.8h31.5v-3.2c0-1.5,2.7-2.3,4.3-1.2l9,6.1c0.7,0.3,0.9,1.1,0.6,1.8c-0.1,0.3-0.3,0.5-0.6,0.6l-9,6.1
	c-1.6,1.1-4.3,0.3-4.3-1.2V2027.6z"/>
<path id="Icon_awesome-long-arrow-alt-left-4" class="st25" d="M481.8,2982.3h-31.5c-0.7,0-1.3-0.4-1.3-0.8v-3.9
	c0-0.5,0.6-0.8,1.3-0.8h31.5v-3.2c0-1.5,2.7-2.3,4.3-1.2l9,6.1c0.7,0.3,0.9,1.1,0.6,1.8c-0.1,0.3-0.3,0.5-0.6,0.6l-9,6.1
	c-1.6,1.1-4.3,0.3-4.3-1.2V2982.3z"/>
<image style="overflow:visible;" width="386" height="470" xlink:href="47B6EA0.png"  transform="matrix(0.24 0 0 0.24 420.4639 2546.1565)">
</image>
<image style="overflow:visible;" width="325" height="407" xlink:href="F2488671.png"  transform="matrix(0.285 0 0 0.2771 514.6813 2546.1565)">
</image>
<g id="_x31_.psd">
	<defs>
		<rect id="SVGID_1_" x="400.5" y="3340" width="108" height="100"/>
	</defs>
	<clipPath id="SVGID_2_">
		<use xlink:href="#SVGID_1_"  style="overflow:visible;"/>
	</clipPath>
	<g style="clip-path:url(#SVGID_2_);">
		
			<image style="overflow:visible;" width="89" height="89" id="Layer_1" xlink:href="47B6ECA.png"  transform="matrix(1 0 0 1 409.5201 3347.0425)">
		</image>
	</g>
</g>
<g id="_x31_.psd_1_">
	<defs>
		<rect id="SVGID_3_" x="1147.6" y="3333.9" width="108" height="100"/>
	</defs>
	<clipPath id="SVGID_4_">
		<use xlink:href="#SVGID_3_"  style="overflow:visible;"/>
	</clipPath>
	<g style="clip-path:url(#SVGID_4_);">
		
			<image style="overflow:visible;" width="89" height="89" id="Layer_1_1_" xlink:href="47B6ECB.png"  transform="matrix(1 0 0 1 1156.64 3340.8723)">
		</image>
	</g>
</g>
<g id="_x32_.psd">
	<defs>
		<rect id="SVGID_5_" x="644.7" y="3354.7" width="119.7" height="125.5"/>
	</defs>
	<clipPath id="SVGID_6_">
		<use xlink:href="#SVGID_5_"  style="overflow:visible;"/>
	</clipPath>
	<g transform="matrix(1 0 0 1 0 -2.441406e-04)" style="clip-path:url(#SVGID_6_);">
		
			<image style="overflow:visible;" width="310" height="307" id="Layer_1_2_" xlink:href="47B6ECD.png"  transform="matrix(0.386 0 0 0.4087 644.7361 3354.7139)">
		</image>
	</g>
</g>
<image style="overflow:visible;" width="387" height="373" xlink:href="47B6ECF.png"  transform="matrix(0.4079 0 0 0.4079 868.6484 3339.2749)">
</image>
<g id="_x35_.psd">
	<defs>
		<rect id="SVGID_7_" x="1381.3" y="3336" width="132.4" height="143.9"/>
	</defs>
	<clipPath id="SVGID_8_">
		<use xlink:href="#SVGID_7_"  style="overflow:visible;"/>
	</clipPath>
	<g transform="matrix(1 0 0 1 0 2.441406e-04)" style="clip-path:url(#SVGID_8_);">
		
			<image style="overflow:visible;" width="76" height="76" id="Layer_1_3_" xlink:href="47B6EC8.png"  transform="matrix(1.439 0 0 1.439 1392.764 3353.2209)">
		</image>
	</g>
</g>
</svg>
