<?xml version="1.0" encoding="UTF-8"?>
<svg width="132px" height="55px" viewBox="0 0 132 55" version="1.1" xmlns="http://www.w3.org/2000/svg" xmlns:xlink="http://www.w3.org/1999/xlink">
    <title>Disney-logo</title>
    <g id="Page-1" stroke="none" stroke-width="1" fill="none" fill-rule="evenodd">
        <g id="Desktop-HD-Copy-2" transform="translate(-1111.000000, -2887.000000)" fill="#000000" fill-rule="nonzero">
            <g id="Disney-logo" transform="translate(1111.000000, 2887.000000)">
                <path d="M113.658,23.674 C111.435,24.187 105.564,24.472 105.564,24.472 L104.842,26.79 C104.842,26.79 107.749,26.543 109.877,26.752 C109.877,26.752 110.561,26.695 110.637,27.512 C110.675,28.348 110.58,29.222 110.58,29.222 C110.58,29.222 110.523,29.735 109.82,29.868 C109.003,30.001 103.493,30.248 103.493,30.248 L102.6,33.25 C102.6,33.25 102.277,33.934 103.018,33.744 C103.702,33.554 109.478,32.452 110.238,32.604 C111.036,32.794 111.948,33.896 111.682,34.884 C111.378,36.081 105.602,39.767 102.106,39.52 C102.106,39.52 100.263,39.634 98.724,37.145 C97.242,34.77 99.237,30.305 99.237,30.305 C99.237,30.305 98.344,28.215 99.009,27.455 C99.009,27.455 99.389,27.132 100.529,27.037 L101.954,24.111 C101.954,24.111 100.339,24.206 99.389,23.028 C98.515,21.888 98.439,21.394 99.123,21.09 C99.845,20.71 106.533,19.513 111.131,19.665 C111.131,19.665 112.746,19.475 114.171,22.268 C114.171,22.268 114.817,23.408 113.677,23.674 M96.33,34.922 C95.76,36.309 94.183,37.772 92.283,36.879 C90.345,35.967 87.286,29.735 87.286,29.735 C87.286,29.735 86.146,27.417 85.918,27.493 C85.918,27.493 85.671,27.037 85.538,29.583 C85.348,32.11 85.576,37.031 84.531,37.81 C83.581,38.57 82.441,38.247 81.795,37.354 C81.263,36.461 81.035,34.314 81.339,30.571 C81.681,26.828 82.536,22.838 83.619,21.603 C84.759,20.349 85.671,21.261 86.013,21.603 C86.013,21.603 87.476,22.933 89.946,26.866 L90.364,27.588 C90.364,27.588 92.606,31.331 92.834,31.312 C92.834,31.312 93.024,31.502 93.176,31.35 C93.404,31.293 93.328,30.077 93.328,30.077 C93.328,30.077 92.91,26.03 90.82,19.19 C90.82,19.19 90.516,18.316 90.725,17.48 C90.915,16.72 91.732,17.1 91.732,17.1 C91.732,17.1 94.886,18.62 96.425,23.75 C97.945,28.88 96.919,33.535 96.349,34.922 M80.864,21.755 C80.56,22.287 80.427,23.028 79.116,23.237 C79.116,23.237 66.386,24.13 65.759,25.023 C65.759,25.023 65.341,25.555 66.025,25.688 C66.747,25.84 69.635,26.22 71.003,26.296 C72.485,26.296 77.463,26.334 79.287,28.576 C79.287,28.576 80.332,29.64 80.294,32.053 C80.256,34.523 79.819,35.397 78.85,36.29 C77.843,37.126 69.217,41.002 63.65,35.074 C63.65,35.074 61.104,32.224 64.543,30.058 C64.543,30.058 67.013,28.538 73.34,30.305 C73.34,30.305 75.24,30.989 75.164,31.692 C75.05,32.452 73.587,33.212 71.459,33.174 C69.407,33.117 67.887,32.129 68.191,32.3 C68.476,32.395 65.968,31.084 65.189,31.977 C64.429,32.813 64.619,33.307 65.379,33.82 C67.279,34.922 74.746,34.523 76.969,32.034 C76.969,32.034 77.862,31.027 76.513,30.21 C75.183,29.45 71.307,28.975 69.806,28.918 C68.381,28.842 63.042,28.918 62.244,27.531 C62.244,27.531 61.484,26.543 62.32,23.845 C63.194,20.995 69.407,19.893 72.105,19.665 C72.105,19.665 79.515,19.361 80.902,20.881 C80.902,20.881 81.092,21.223 80.864,21.736 M59.85,38.456 C58.957,39.121 57.057,38.836 56.506,38.076 C55.974,37.411 55.784,34.789 55.879,30.666 C56.012,26.448 56.069,21.28 57.019,20.444 C57.969,19.627 58.539,20.349 58.919,20.9 C59.299,21.47 59.793,22.097 59.869,23.408 C59.983,24.738 60.306,31.578 60.306,31.578 C60.306,31.578 60.724,37.81 59.869,38.456 M61.75,16.226 C59.128,17.119 57.342,16.834 55.822,16.169 C55.157,17.366 54.758,17.727 54.264,17.803 C53.504,17.879 52.839,16.663 52.744,16.283 C52.592,15.998 52.231,15.485 52.668,14.326 C51.186,12.996 51.072,11.21 51.338,10.013 C51.68,8.607 54.188,3.325 61.788,2.698 C61.788,2.698 65.512,2.432 66.158,4.408 L66.272,4.408 C66.272,4.408 69.882,4.408 69.806,7.638 C69.806,10.868 65.816,14.896 61.75,16.283 M57.285,13.243 C60.002,13.737 64.752,13.547 66.88,9.253 C66.88,9.253 67.887,6.555 65.132,7.03 C62.738,7.41 59.052,10.602 57.285,13.243 Z M54.188,11.59 C55.081,10.26 56.658,8.17 59.033,6.536 C57.209,6.726 55.67,7.486 54.625,9.12 C53.865,10.355 53.827,11.096 54.188,11.59 Z M119.358,38.323 C117.61,42.617 116.128,46.968 115.273,53.485 C115.273,53.485 115.083,54.758 114.038,54.34 C112.993,53.96 111.283,52.25 110.903,49.837 C110.523,46.683 111.929,41.363 114.798,35.245 C113.962,33.915 113.373,31.939 113.848,29.165 C113.848,29.165 114.608,24.035 119.738,19.399 C119.738,19.399 120.346,18.886 120.688,19.057 C121.106,19.247 120.935,20.881 120.593,21.717 C120.289,22.515 118.009,26.467 118.009,26.467 C118.009,26.467 116.584,29.165 116.983,31.274 C119.681,27.132 125.818,18.734 129.618,21.394 C132.031,23.104 132.031,28.614 130.226,31.806 C128.801,34.333 124.773,39.558 119.396,38.342 M121.41,33.744 C123.5,33.516 125.533,32.357 126.16,31.768 C127.167,30.875 129.485,28.462 129.124,25.27 C129.124,25.27 128.896,23.598 127.3,25.422 C125.894,26.942 123.386,29.83 121.41,33.744 Z M42.18,40.565 C35.454,42.617 29.108,41.667 25.65,40.755 C25.555,42.161 25.403,42.75 25.175,42.978 C24.909,43.282 22.705,44.536 21.489,42.75 C20.957,41.895 20.691,40.356 20.539,38.95 C12.749,35.416 9.139,30.21 9.025,30.02 C8.835,29.83 7.068,27.987 8.835,25.707 C10.488,23.655 15.96,21.584 20.862,20.767 C21.052,16.587 21.508,13.357 22.097,11.932 C22.8,10.222 23.693,11.742 24.491,12.882 C25.137,13.737 25.536,17.404 25.574,20.33 C28.766,20.178 30.704,20.406 34.257,21.09 C38.931,21.888 42.047,24.282 41.8,26.98 C41.572,29.64 39.14,30.742 38.19,30.818 C37.24,30.894 35.72,30.191 35.72,30.191 C34.656,29.697 35.625,29.241 36.86,28.709 C38.228,28.044 37.924,27.379 37.924,27.379 C37.43,25.859 31.369,24.852 25.346,24.852 C25.346,28.177 25.479,33.687 25.574,36.898 C29.792,37.696 32.946,37.525 32.946,37.525 C32.946,37.525 48.336,37.088 48.773,27.265 C49.248,17.423 33.383,7.999 21.698,5.035 C10.032,1.976 3.42,4.142 2.85,4.427 C2.223,4.731 2.793,4.845 2.793,4.845 C2.793,4.845 3.42,4.94 4.56,5.32 C5.7,5.7 4.788,6.27 4.788,6.27 C2.793,6.954 0.57,6.555 0.133,5.643 C-0.304,4.75 0.418,3.933 1.273,2.736 C2.071,1.501 2.983,1.539 2.983,1.539 C17.423,-3.496 35.055,5.529 35.055,5.529 C51.547,13.851 54.359,23.636 54.055,27.436 C53.789,31.179 52.345,37.506 42.18,40.584 M9.956,28.956 C13.034,32.243 16.796,34.314 20.406,35.606 C20.824,29.906 20.786,27.873 20.786,25.004 C15.2,25.384 11.97,26.296 10.45,26.98 C8.816,27.74 9.956,28.956 9.956,28.956 Z" id="Shape"></path>
            </g>
        </g>
    </g>
</svg>