<?xml version="1.0" encoding="UTF-8"?>
<svg width="183px" height="22px" viewBox="0 0 183 22" version="1.1" xmlns="http://www.w3.org/2000/svg" xmlns:xlink="http://www.w3.org/1999/xlink">
    <title>Haufe-logo</title>
    <g id="Page-1" stroke="none" stroke-width="1" fill="none" fill-rule="evenodd">
        <g id="Desktop-HD-Copy-2" transform="translate(-1086.000000, -2710.000000)" fill="#000000" fill-rule="nonzero">
            <g id="Haufe-logo" transform="translate(1086.000000, 2710.382212)">
                <path d="M99,0.617788462 L99,19.6688834 C96.2857143,20.1798323 91,20.6177885 85,20.6177885 C74.2857143,20.6177885 71,17.6980804 71,13.9754527 L71,0.690781162 L78.0714286,0.690781162 L78.0714286,13.2455257 C78.0714286,16.3112191 81.2142857,17.1141388 85.3571429,17.1141388 C88.2142857,17.1141388 90.3571429,17.0411461 91.9285714,16.822168 L91.9285714,0.617788462 L99,0.617788462 Z M7.07142857,0.617788462 L7.07142857,8.37434277 L20.9285714,8.37434277 L20.9285714,0.617788462 L28,0.617788462 L28,19.6177885 L20.9285714,19.6177885 L20.9285714,11.7900731 L7.07142857,11.7900731 L7.07142857,19.6177885 L0,19.6177885 L0,0.617788462 L7.07142857,0.617788462 Z M135,0.617788462 L135,4.38932404 L116,4.38932404 C114.5,4.38932404 114.071429,4.81629033 114.071429,5.59906187 L114.071429,5.59906187 L114.071429,8.30318172 L135,8.30318172 L135,11.647751 L114.071429,11.647751 L114.071429,19.6177885 L107,19.6177885 L107,4.46048509 C107,1.61404314 108.928571,0.617788462 114.5,0.617788462 L114.5,0.617788462 L135,0.617788462 Z M169,0.617788462 L169,4.38932404 L150,4.38932404 L150,4.46048509 C148.5,4.46048509 148.071429,4.95861243 148.071429,5.59906187 L148.071429,8.37434277 L169,8.37434277 L169,11.647751 L148.071429,11.647751 L148.071429,14.7076761 C148.071429,15.4192866 148.5,15.8462529 150,15.8462529 L169,15.8462529 L169,19.6177885 L148.5,19.6177885 C142.928571,19.6177885 141,18.6215338 141,15.7750918 L141,4.46048509 C141,1.61404314 142.928571,0.617788462 148.5,0.617788462 L169,0.617788462 Z M180.851485,14.6177885 C182.445545,14.6177885 183,14.9854355 183,15.9413179 L183,18.294259 C183,19.2501414 182.445545,19.6177885 180.851485,19.6177885 L178.148515,19.6177885 C176.554455,19.6177885 176,19.2501414 176,18.294259 L176,15.9413179 C176,14.9854355 176.554455,14.6177885 178.148515,14.6177885 L180.851485,14.6177885 Z M53.2486446,0.618037913 C60.7763342,0.629385389 63,1.05199107 63,6.74233059 L63,6.74233059 L63,18.7826236 C60.4219949,19.200206 55.2659847,19.6177885 49.3222506,19.6177885 C44.8107417,19.5481914 40.7289003,19.200206 37.9360614,18.7130266 C35.859335,18.4346383 35,17.6690705 35,15.9987408 L35,15.9987408 L35,11.3357372 C35,9.66540751 35.9309463,8.96943681 37.9360614,8.62145147 C40.7289003,8.13427198 44.8107417,7.71668956 49.3222506,7.71668956 L49.3222506,7.71668956 L49.3222506,7.78628663 L55.9104859,7.78628663 L55.9104859,6.32474817 C55.9104859,4.58482143 55.6956522,3.81925366 52.7595908,3.81925366 L52.7595908,3.81925366 L37.2199488,3.81925366 L37.2199488,0.617788462 Z M55.9104859,10.8485577 L49.3222506,10.8485577 C47.1023018,10.8485577 44.9539642,10.9877518 43.5217391,11.2661401 C42.5191816,11.4053342 42.0895141,11.7533196 42.0895141,12.5884844 L42.0895141,12.5884844 L42.0895141,14.7459936 C42.0895141,15.5115614 42.5191816,15.9291438 43.5217391,16.0683379 C44.9539642,16.3467262 47.1023018,16.4859203 49.3222506,16.4859203 L49.3222506,16.4859203 L50.0781085,16.4840867 C52.4642147,16.4726637 54.7442455,16.409695 55.9104859,16.3467262 L55.9104859,16.3467262 L55.9104859,10.8485577 Z" id="Combined-Shape"></path>
            </g>
        </g>
    </g>
</svg>