<?xml version="1.0" encoding="UTF-8"?>
<svg width="179px" height="32px" viewBox="0 0 179 32" version="1.1" xmlns="http://www.w3.org/2000/svg" xmlns:xlink="http://www.w3.org/1999/xlink">
    <title>userlane-logo</title>
    <g id="Page-1" stroke="none" stroke-width="1" fill="none" fill-rule="evenodd">
        <g id="Desktop-HD-Copy-2" transform="translate(-1088.000000, -2797.000000)" fill="#000000">
            <g id="userlane-logo" transform="translate(1088.000000, 2797.000000)">
                <path d="M7.86196078,15.9121569 C7.86196078,20.0784314 11.3568627,24.1129412 15.7176471,24.1129412 C20.0784314,24.1129412 23.5796078,20.0784314 23.5796078,15.9121569 L23.5796078,15.9121569 L31.4352941,15.9121569 C31.4352941,24.1819608 24.3952941,31.5984314 15.7176471,31.5984314 C7.04,31.5984314 2.84217094e-13,24.1819608 2.84217094e-13,15.9121569 L2.84217094e-13,15.9121569 Z M78.6133333,6.71372549 C79.2670939,7.15719461 79.8955272,7.6368987 80.4956863,8.15058824 L78.2870588,10.4345098 C77.1672296,9.30638983 75.5464804,8.83248654 73.9952941,9.17960784 C73.612588,9.21805442 73.266056,9.42257844 73.0474335,9.7390375 C72.8288111,10.0554966 72.7601432,10.4519801 72.8596078,10.8235294 C72.9506655,11.2202407 73.2438927,11.5396915 73.6313725,11.6643137 C74.572549,12.0407843 75.545098,12.3419608 76.4737255,12.7435294 C77.5010335,13.1328398 78.4903084,13.6159253 79.4290196,14.1866667 C81.9388235,15.8745098 81.4870588,19.2878431 80.0564706,20.8690196 C78.9828748,21.9628096 77.5498964,22.6313843 76.0219608,22.7513725 C74.5265486,22.9566238 73.0043978,22.8345948 71.5607843,22.3937255 C70.005375,21.9831562 68.685812,20.9538062 67.9090196,19.545098 L70.1992157,17.5686275 C70.5129412,17.8133333 70.8266667,18.0454902 71.0839216,18.265098 C72.5735289,19.4699923 74.5857659,19.805762 76.3858824,19.1498039 C76.8157634,19.0592946 77.1764566,18.7687007 77.356371,18.3679259 C77.5362854,17.9671511 77.5137312,17.5045111 77.2956863,17.1231373 C77.0763501,16.7940374 76.7670928,16.5348711 76.4047059,16.3764706 C75.2815686,15.9184314 74.1207843,15.5356863 72.9788235,15.1215686 C71.7963558,14.7739231 70.7395707,14.0919154 69.9356863,13.1576471 C68.7695734,11.522229 68.8232625,9.31330495 70.067451,7.73647059 C71.0093284,6.64082654 72.3475631,5.96381069 73.7882353,5.85411765 C75.4475071,5.58959574 77.1474991,5.89245517 78.6133333,6.71372549 Z M174.644706,7.02117647 C176.541426,8.23017098 177.794583,10.2273888 178.058039,12.4611765 C178.189804,13.3584314 178.164706,14.2807843 178.214902,15.2658824 L165.578039,15.2658824 C165.555278,17.0474882 166.714547,18.6290088 168.420392,19.1435294 C170.220598,19.8076863 172.231999,19.5474702 173.803922,18.4470588 C174.117647,18.1960784 174.431373,17.932549 174.770196,17.6439216 L177.072941,19.8462745 C175.696843,21.4004956 173.800009,22.3980072 171.739608,22.6509804 C169.612,22.9906282 167.431923,22.6085075 165.546667,21.5654902 C163.404157,20.3410835 161.997612,18.1445287 161.781961,15.6862745 C161.53569,13.9225709 161.787808,12.1251436 162.509804,10.4972549 C163.521613,8.11145616 165.677848,6.40443698 168.232157,5.96705882 C170.423843,5.42567128 172.741658,5.80668189 174.644706,7.02117647 Z M96.2823529,7.02745098 C98.1810289,8.23450275 99.4348297,10.2327478 99.6956863,12.467451 C99.827451,13.3647059 99.8023529,14.2870588 99.852549,15.2533333 L87.1780392,15.2470588 C87.334902,17.932549 89.3239216,19.3631373 91.7270588,19.4572549 C93.4719003,19.5781681 95.1780771,18.9049199 96.3701961,17.625098 C97.1607843,18.3717647 97.92,19.1058824 98.6980392,19.8462745 C97.3437264,21.3794341 95.4806742,22.3711305 93.452549,22.6384314 C91.6242577,22.932697 89.7501996,22.7155408 88.0376471,22.0109804 C85.4490096,20.9229497 83.6808993,18.4848442 83.4509804,15.6862745 C83.2016456,13.9871252 83.4185163,12.2521597 84.0784314,10.6666667 C85.060537,8.19979609 87.2535735,6.4201814 89.8698039,5.96705882 C92.0623433,5.42751944 94.3802194,5.81080815 96.2823529,7.02745098 Z M134.713725,6.88941176 C135.234557,7.28064434 135.717701,7.71967587 136.156863,8.20078431 L136.156863,6.2745098 L140.028235,6.2745098 L140.028235,22.3372549 L136.156863,22.3372549 L136.156863,20.3356863 C135.733631,20.8175558 135.274259,21.2664397 134.782745,21.6784314 C133.460111,22.5449265 131.870375,22.9078494 130.302745,22.7011765 C128.414772,22.5668904 126.64288,21.7401564 125.327059,20.3796078 C124.011771,19.0468619 123.184909,17.309124 122.980392,15.4478431 C122.65564,13.2049288 123.225808,10.9242569 124.567843,9.09803922 C125.817416,7.34935543 127.747582,6.20994195 129.882353,5.96078431 C131.552275,5.65476914 133.27624,5.9861288 134.713725,6.88941176 Z M65.6941176,6.12392157 L65.6941176,15.6423529 C65.7378302,17.0359711 65.3736448,18.4120247 64.6462745,19.6015686 C63.6238323,21.1494 61.9983163,22.1966512 60.1662745,22.4878431 C58.3972908,22.8736836 56.5534136,22.7229401 54.8705882,22.054902 C52.7354708,21.2807028 51.2249708,19.361565 50.9741176,17.1043137 C50.9113567,16.6679052 50.8799998,16.227565 50.8799998,15.7866667 L50.8799998,6.3372549 C50.8849648,6.26994539 50.8933416,6.20293114 50.905098,6.13647059 L54.7827451,6.13647059 L54.7827451,15.8870588 C54.7436351,16.7035464 55.0326184,17.5017761 55.5853453,18.1040009 C56.1380721,18.7062256 56.9086503,19.0624436 57.7254902,19.0933333 C58.6766307,19.2484267 59.6514826,19.0449599 60.4611765,18.5223529 C61.2290724,18.0161548 61.698433,17.1642652 61.7160784,16.2447059 C61.7976471,14.7513725 61.8039216,13.2580392 61.8164706,11.7709804 L61.8164706,6.12392157 L65.6941176,6.12392157 Z M119.843137,0 L119.843137,22.3498039 L115.971765,22.3498039 L115.971765,0 L119.843137,0 Z M154.553725,6.46901961 C156.725809,7.22732821 158.270211,9.16453983 158.52549,11.4509804 C158.582862,11.8667711 158.610123,12.2861633 158.607059,12.7058824 L158.607059,22.3121569 L154.716863,22.3121569 L154.716863,12.6682353 C154.757796,11.8542366 154.473182,11.0573992 153.925815,10.4535295 C153.378448,9.84965992 152.613311,9.48838453 151.799216,9.44941176 C150.861426,9.2983943 149.900681,9.49232667 149.094902,9.99529412 C148.311264,10.4995675 147.829258,11.3601241 147.808627,12.2917647 C147.727059,13.5780392 147.720784,14.8643137 147.71451,16.1505882 C147.670588,18.1960784 147.683137,20.2541176 147.683137,22.3498039 L143.811765,22.3498039 L143.811765,12.8941176 C143.772448,11.5162249 144.127263,10.1557382 144.83451,8.97254902 C145.85546,7.40898134 147.489322,6.34936365 149.333333,6.05490196 C151.076689,5.68202883 152.890962,5.82594954 154.553725,6.46901961 Z M112.602353,5.96078431 L112.602353,9.65647059 C112.056471,9.65647059 111.516863,9.58117647 110.977255,9.58117647 C108.35451,9.58117647 106.698039,11.2313725 106.679216,13.8603922 C106.660392,16.4894118 106.679216,19.187451 106.679216,21.8478431 L106.679216,22.3435294 L102.91451,22.3435294 L102.901961,6.23686275 L106.666667,6.23686275 L106.666667,8.54588235 C108.072157,6.19921569 110.167843,5.71607843 112.602353,5.96078431 Z M131.563922,9.41176471 C130.283294,9.37730931 129.044239,9.8678425 128.134233,10.7695539 C127.224227,11.6712653 126.72237,12.9057774 126.745098,14.1866667 C126.662386,15.478553 127.114086,16.7476818 127.994405,17.6968129 C128.874724,18.645944 130.106335,19.1917051 131.400784,19.2062745 C134.033789,19.3168909 136.268502,17.2944756 136.420392,14.6635294 C136.542975,13.3057225 136.08467,11.9595315 135.159057,10.9585782 C134.233444,9.95762499 132.927155,9.39559156 131.563922,9.41176471 Z M88.64,10.1584314 C87.8494592,10.7071804 87.3544998,11.5883931 87.2972549,12.5490196 L95.8619608,12.5490196 C95.8140597,11.2831185 95.0601632,10.1510617 93.9105882,9.61882353 C92.2039178,8.7284066 90.1308312,8.94065118 88.64,10.1584314 Z M166.4,10.7231373 C165.9574,11.2152367 165.705849,11.8496813 165.69098,12.5113725 L174.230588,12.5113725 C174.212603,11.6467005 173.843341,10.8266207 173.207843,10.24 C171.189973,8.5070961 168.152918,8.72262907 166.4,10.7231373 Z M31.4352941,0.263529412 L31.4352941,12.454902 L19.2439216,12.454902 L19.2439216,0.263529412 L31.4352941,0.263529412 Z M6.13857063,0.163150042 C9.52947917,0.16084711 12.2808687,2.90662725 12.2854903,6.29753343 C12.2901003,9.68843961 9.54619636,12.4417002 6.15529412,12.4486564 C4.52345408,12.453634 2.95682476,11.8084637 1.80175734,10.6557511 C0.646689913,9.5030386 -0.00167623601,7.93772921 -3.24213369e-06,6.30588235 C-3.24213369e-06,2.91497303 2.7476621,0.165455873 6.13857063,0.163150042 Z" id="Combined-Shape"></path>
            </g>
        </g>
    </g>
</svg>